<svg width="138" height="24" viewBox="0 0 138 24" fill="none" xmlns="http://www.w3.org/2000/svg">
<path d="M28.4957 19L24.3906 4.45455H27.2244L29.8452 15.1435H29.9801L32.7784 4.45455H35.3565L38.1619 15.1506H38.2898L40.9105 4.45455H43.7443L39.6392 19H37.0398L34.1278 8.79403H34.0142L31.0952 19H28.4957ZM49.103 19.2131C48.0376 19.2131 47.1143 18.9787 46.3331 18.5099C45.5518 18.0412 44.9458 17.3854 44.5149 16.5426C44.0888 15.6998 43.8757 14.715 43.8757 13.5881C43.8757 12.4612 44.0888 11.474 44.5149 10.6264C44.9458 9.77888 45.5518 9.12074 46.3331 8.65199C47.1143 8.18324 48.0376 7.94886 49.103 7.94886C50.1683 7.94886 51.0916 8.18324 51.8729 8.65199C52.6541 9.12074 53.2578 9.77888 53.6839 10.6264C54.1148 11.474 54.3303 12.4612 54.3303 13.5881C54.3303 14.715 54.1148 15.6998 53.6839 16.5426C53.2578 17.3854 52.6541 18.0412 51.8729 18.5099C51.0916 18.9787 50.1683 19.2131 49.103 19.2131ZM49.1172 17.1534C49.6948 17.1534 50.1778 16.9948 50.5661 16.6776C50.9543 16.3556 51.2431 15.9247 51.4325 15.3849C51.6267 14.8452 51.7237 14.2438 51.7237 13.581C51.7237 12.9134 51.6267 12.3097 51.4325 11.7699C51.2431 11.2254 50.9543 10.7921 50.5661 10.4702C50.1778 10.1482 49.6948 9.98722 49.1172 9.98722C48.5253 9.98722 48.0329 10.1482 47.6399 10.4702C47.2517 10.7921 46.9605 11.2254 46.7663 11.7699C46.5769 12.3097 46.4822 12.9134 46.4822 13.581C46.4822 14.2438 46.5769 14.8452 46.7663 15.3849C46.9605 15.9247 47.2517 16.3556 47.6399 16.6776C48.0329 16.9948 48.5253 17.1534 49.1172 17.1534ZM56.5124 19V8.09091H59.0053V9.90909H59.119C59.3178 9.27936 59.6587 8.79403 60.1417 8.45312C60.6294 8.10748 61.1857 7.93466 61.8107 7.93466C61.9528 7.93466 62.1114 7.94176 62.2866 7.95597C62.4665 7.96544 62.6156 7.98201 62.734 8.00568V10.3707C62.6251 10.3329 62.4523 10.2997 62.2156 10.2713C61.9835 10.2382 61.7586 10.2216 61.5408 10.2216C61.0721 10.2216 60.6507 10.3234 60.2766 10.527C59.9073 10.7259 59.6161 11.0028 59.4031 11.358C59.19 11.7131 59.0835 12.1226 59.0835 12.5866V19H56.5124ZM66.7859 15.5767L66.7788 12.473H67.1907L71.1112 8.09091H74.1154L69.293 13.4602H68.7603L66.7859 15.5767ZM64.4421 19V4.45455H67.0131V19H64.4421ZM71.2887 19L67.7376 14.0355L69.4705 12.2244L74.364 19H71.2887Z" fill="#A6ADFF"/>
<path d="M87.7159 8.09091C87.6307 7.37121 87.285 6.8125 86.679 6.41477C86.0729 6.01705 85.3295 5.81818 84.4489 5.81818C83.8049 5.81818 83.2415 5.92235 82.7585 6.13068C82.2803 6.33901 81.9063 6.62547 81.6364 6.99006C81.3712 7.35464 81.2386 7.76894 81.2386 8.23295C81.2386 8.62121 81.331 8.95502 81.5156 9.23438C81.705 9.509 81.9465 9.73864 82.2401 9.9233C82.5336 10.1032 82.8414 10.2524 83.1634 10.3707C83.4853 10.4844 83.7812 10.5767 84.0511 10.6477L85.5284 11.0455C85.9072 11.1449 86.3286 11.2822 86.7926 11.4574C87.2614 11.6326 87.7088 11.8717 88.1349 12.1747C88.5658 12.473 88.9209 12.8565 89.2003 13.3253C89.4796 13.794 89.6193 14.3693 89.6193 15.0511C89.6193 15.8371 89.4134 16.5473 89.0014 17.1818C88.5942 17.8163 87.9976 18.3205 87.2116 18.6946C86.4304 19.0687 85.4811 19.2557 84.3636 19.2557C83.322 19.2557 82.42 19.0876 81.6577 18.7514C80.9001 18.4152 80.3035 17.9465 79.8679 17.3452C79.437 16.7438 79.1932 16.0455 79.1364 15.25H80.9545C81.0019 15.7992 81.1866 16.2538 81.5085 16.6136C81.8352 16.9687 82.2472 17.2339 82.7443 17.4091C83.2462 17.5795 83.786 17.6648 84.3636 17.6648C85.036 17.6648 85.6397 17.5559 86.1747 17.3381C86.7098 17.1155 87.1335 16.8078 87.446 16.4148C87.7585 16.017 87.9148 15.553 87.9148 15.0227C87.9148 14.5398 87.7798 14.1468 87.5099 13.8438C87.2401 13.5407 86.8849 13.2945 86.4446 13.1051C86.0043 12.9157 85.5284 12.75 85.017 12.608L83.2273 12.0966C82.0909 11.7699 81.1913 11.3035 80.5284 10.6974C79.8655 10.0914 79.5341 9.2983 79.5341 8.31818C79.5341 7.50379 79.7543 6.79356 80.1946 6.1875C80.6397 5.5767 81.2363 5.10322 81.9844 4.76705C82.7372 4.42614 83.5777 4.25568 84.5057 4.25568C85.4432 4.25568 86.2765 4.42377 87.0057 4.75994C87.7348 5.09138 88.3125 5.54593 88.7386 6.12358C89.1695 6.70123 89.3968 7.35701 89.4205 8.09091H87.7159ZM92.288 23.0909V8.09091H93.9073V9.82386H94.1062C94.2293 9.63447 94.3997 9.39299 94.6175 9.09943C94.8401 8.80114 95.1573 8.53598 95.5692 8.30398C95.9859 8.06723 96.5494 7.94886 97.2596 7.94886C98.1781 7.94886 98.9878 8.1785 99.6886 8.63778C100.389 9.09706 100.936 9.74811 101.329 10.5909C101.722 11.4337 101.919 12.428 101.919 13.5739C101.919 14.7292 101.722 15.7306 101.329 16.5781C100.936 17.4209 100.392 18.0743 99.6957 18.5384C98.9996 18.9976 98.1971 19.2273 97.288 19.2273C96.5872 19.2273 96.0262 19.1113 95.6048 18.8793C95.1834 18.6425 94.859 18.375 94.6317 18.0767C94.4045 17.7737 94.2293 17.5227 94.1062 17.3239H93.9641V23.0909H92.288ZM93.9357 13.5455C93.9357 14.3693 94.0565 15.0961 94.2979 15.7259C94.5394 16.3509 94.8922 16.8409 95.3562 17.196C95.8202 17.5464 96.3884 17.7216 97.0607 17.7216C97.7615 17.7216 98.3462 17.5369 98.815 17.1676C99.2885 16.7936 99.6436 16.2917 99.8803 15.6619C100.122 15.0275 100.243 14.322 100.243 13.5455C100.243 12.7784 100.124 12.0871 99.8874 11.4716C99.6554 10.8513 99.3027 10.3613 98.8292 10.0014C98.3604 9.63684 97.771 9.45455 97.0607 9.45455C96.3789 9.45455 95.806 9.62737 95.342 9.97301C94.878 10.3139 94.5276 10.7921 94.2908 11.4077C94.0541 12.0185 93.9357 12.7311 93.9357 13.5455ZM107.686 19.2557C106.994 19.2557 106.367 19.1255 105.804 18.8651C105.24 18.5999 104.793 18.2188 104.461 17.7216C104.13 17.2197 103.964 16.6136 103.964 15.9034C103.964 15.2784 104.087 14.7718 104.333 14.3835C104.58 13.9905 104.909 13.6828 105.321 13.4602C105.733 13.2377 106.187 13.072 106.684 12.9631C107.186 12.8494 107.69 12.7595 108.197 12.6932C108.86 12.608 109.397 12.544 109.809 12.5014C110.226 12.4541 110.529 12.3759 110.718 12.267C110.913 12.1581 111.01 11.9687 111.01 11.6989V11.642C111.01 10.9413 110.818 10.3968 110.434 10.0085C110.056 9.62027 109.48 9.42614 108.708 9.42614C107.908 9.42614 107.281 9.60133 106.826 9.9517C106.372 10.3021 106.052 10.6761 105.868 11.0739L104.277 10.5057C104.561 9.8428 104.94 9.3267 105.413 8.95739C105.891 8.58333 106.412 8.32292 106.975 8.17614C107.544 8.02462 108.102 7.94886 108.652 7.94886C109.002 7.94886 109.404 7.99148 109.859 8.0767C110.318 8.1572 110.761 8.32528 111.187 8.58097C111.618 8.83665 111.975 9.22254 112.26 9.73864C112.544 10.2547 112.686 10.946 112.686 11.8125V19H111.01V17.5227H110.924C110.811 17.7595 110.621 18.0128 110.356 18.2827C110.091 18.5526 109.738 18.7822 109.298 18.9716C108.858 19.161 108.32 19.2557 107.686 19.2557ZM107.941 17.75C108.604 17.75 109.163 17.6198 109.618 17.3594C110.077 17.099 110.422 16.7628 110.654 16.3509C110.891 15.9389 111.01 15.5057 111.01 15.0511V13.517C110.939 13.6023 110.782 13.6804 110.541 13.7514C110.304 13.8177 110.029 13.8769 109.717 13.929C109.409 13.9763 109.109 14.0189 108.815 14.0568C108.526 14.09 108.292 14.1184 108.112 14.142C107.676 14.1989 107.269 14.2912 106.89 14.419C106.516 14.5421 106.213 14.7292 105.981 14.9801C105.754 15.2263 105.64 15.5625 105.64 15.9886C105.64 16.571 105.856 17.0114 106.287 17.3097C106.722 17.6032 107.274 17.75 107.941 17.75ZM120.177 19.2273C119.154 19.2273 118.273 18.9858 117.535 18.5028C116.796 18.0199 116.228 17.3546 115.83 16.5071C115.433 15.6596 115.234 14.6913 115.234 13.6023C115.234 12.4943 115.437 11.5166 115.844 10.669C116.256 9.81676 116.829 9.15152 117.563 8.6733C118.302 8.19034 119.164 7.94886 120.148 7.94886C120.915 7.94886 121.607 8.09091 122.222 8.375C122.838 8.65909 123.342 9.05682 123.735 9.56818C124.128 10.0795 124.372 10.6761 124.467 11.358H122.79C122.663 10.8608 122.379 10.4205 121.938 10.0369C121.503 9.64867 120.915 9.45455 120.177 9.45455C119.523 9.45455 118.951 9.625 118.458 9.96591C117.97 10.3021 117.589 10.7779 117.315 11.3935C117.045 12.0043 116.91 12.7216 116.91 13.5455C116.91 14.3883 117.042 15.1222 117.308 15.7472C117.577 16.3722 117.956 16.8575 118.444 17.2031C118.936 17.5488 119.514 17.7216 120.177 17.7216C120.612 17.7216 121.008 17.6458 121.363 17.4943C121.718 17.3428 122.019 17.125 122.265 16.8409C122.511 16.5568 122.686 16.2159 122.79 15.8182H124.467C124.372 16.4621 124.138 17.0421 123.763 17.5582C123.394 18.0696 122.904 18.4768 122.293 18.7798C121.687 19.0781 120.982 19.2273 120.177 19.2273ZM131.491 19.2273C130.44 19.2273 129.533 18.9953 128.771 18.5312C128.013 18.0625 127.428 17.4091 127.016 16.571C126.609 15.7282 126.406 14.7481 126.406 13.6307C126.406 12.5133 126.609 11.5284 127.016 10.6761C127.428 9.81913 128.001 9.15152 128.735 8.6733C129.474 8.19034 130.335 7.94886 131.32 7.94886C131.888 7.94886 132.45 8.04356 133.004 8.23295C133.558 8.42235 134.062 8.73011 134.516 9.15625C134.971 9.57765 135.333 10.1364 135.603 10.8324C135.873 11.5284 136.008 12.3854 136.008 13.4034V14.1136H127.599V12.6648H134.303C134.303 12.0492 134.18 11.5 133.934 11.017C133.692 10.5341 133.347 10.1529 132.897 9.87358C132.452 9.59422 131.926 9.45455 131.32 9.45455C130.653 9.45455 130.075 9.62026 129.587 9.9517C129.104 10.2784 128.733 10.7045 128.472 11.2301C128.212 11.7557 128.082 12.3191 128.082 12.9205V13.8864C128.082 14.7102 128.224 15.4086 128.508 15.9815C128.797 16.5497 129.197 16.983 129.708 17.2812C130.219 17.5748 130.814 17.7216 131.491 17.7216C131.931 17.7216 132.329 17.66 132.684 17.5369C133.044 17.4091 133.354 17.2197 133.614 16.9688C133.875 16.7131 134.076 16.3958 134.218 16.017L135.837 16.4716C135.667 17.0208 135.38 17.5038 134.978 17.9205C134.576 18.3324 134.078 18.6544 133.487 18.8864C132.895 19.1136 132.229 19.2273 131.491 19.2273Z" fill="#171717"/>
<path d="M2 6H16V10" stroke="#171717" stroke-width="1.5"/>
<path d="M15 18H1V14" stroke="#171717" stroke-width="1.5"/>
<path d="M5 19.5H10.5" stroke="#171717" stroke-width="2"/>
</svg>
